<svg xmlns="http://www.w3.org/2000/svg" width="20" height="px" viewBox="0 0 20 20"><path style="stroke:none;fill-rule:evenodd;fill:#000;fill-opacity:1" d="M10 0c5.523 0 10 4.59 10 10.254 0 4.527-2.863 8.371-6.832 9.726-.508.102-.688-.218-.688-.492 0-.336.012-1.441.012-2.812 0-.957-.32-1.582-.68-1.899 2.227-.254 4.567-1.12 4.567-5.058 0-1.121-.387-2.035-1.027-2.754.101-.258.445-1.3-.098-2.711 0 0-.84-.277-2.75 1.05A9.227 9.227 0 0 0 10 4.958a9.249 9.249 0 0 0-2.504.348c-1.91-1.328-2.75-1.051-2.75-1.051-.543 1.41-.2 2.453-.098 2.71-.636.72-1.03 1.634-1.03 2.755 0 3.926 2.335 4.808 4.558 5.066-.285.254-.547.707-.637 1.371-.57.262-2.016.715-2.91-.851 0 0-.527-.985-1.531-1.059 0 0-.977-.012-.07.625 0 0 .656.313 1.113 1.5 0 0 .586 1.828 3.367 1.207.004.86.015 1.668.015 1.91 0 .274-.183.59-.683.492C2.863 18.63 0 14.781 0 10.254 0 4.59 4.477 0 10 0"/></svg>