<svg xmlns="http://www.w3.org/2000/svg" width="20" height="px" viewBox="0 0 20 20"><path style="stroke:none;fill-rule:evenodd;fill:#0f0f0f;fill-opacity:1" d="M10 15a5 5 0 1 0 0-10 5 5 0 0 0 0 10Zm0-1.668a3.333 3.333 0 1 0-.001-6.665A3.333 3.333 0 0 0 10 13.332Zm0 0"/><path style="stroke:none;fill-rule:nonzero;fill:#0f0f0f;fill-opacity:1" d="M15 4.168a.83.83 0 0 0-.832.832c0 .46.371.832.832.832A.83.83 0 0 0 15.832 5 .83.83 0 0 0 15 4.168Zm0 0"/><path style="stroke:none;fill-rule:evenodd;fill:#0f0f0f;fill-opacity:1" d="M1.379 3.563C.832 4.633.832 6.03.832 8.832v2.336c0 2.8 0 4.2.547 5.27a4.999 4.999 0 0 0 2.184 2.183c1.07.547 2.468.547 5.269.547h2.336c2.8 0 4.2 0 5.27-.547a4.999 4.999 0 0 0 2.183-2.183c.547-1.07.547-2.47.547-5.27V8.832c0-2.8 0-4.2-.547-5.27a4.999 4.999 0 0 0-2.183-2.183c-1.07-.547-2.47-.547-5.27-.547H8.832c-2.8 0-4.2 0-5.27.547A4.999 4.999 0 0 0 1.38 3.563ZM11.168 2.5H8.832c-1.426 0-2.398 0-3.148.063-.73.058-1.102.167-1.364.3A3.325 3.325 0 0 0 2.863 4.32c-.133.262-.242.633-.3 1.364-.063.75-.063 1.722-.063 3.148v2.336c0 1.426 0 2.398.063 3.148.058.73.167 1.102.3 1.364.32.629.828 1.136 1.457 1.457.262.133.633.242 1.364.3.75.063 1.722.063 3.148.063h2.336c1.426 0 2.398 0 3.148-.063.73-.058 1.102-.167 1.364-.3a3.325 3.325 0 0 0 1.457-1.457c.133-.262.242-.633.3-1.364.063-.75.063-1.722.063-3.148V8.832c0-1.426 0-2.398-.063-3.148-.058-.73-.167-1.102-.3-1.364a3.325 3.325 0 0 0-1.457-1.457c-.262-.133-.633-.242-1.364-.3-.75-.063-1.722-.063-3.148-.063Zm0 0"/></svg>