<?xml version="1.0" encoding="UTF-8"?>
<svg xmlns="http://www.w3.org/2000/svg" xmlns:xlink="http://www.w3.org/1999/xlink" width="15px" height="15px" viewBox="0 0 15 15" version="1.1">
<g id="surface1">
<path style=" stroke:none;fill-rule:evenodd;fill:rgb(0%,0%,0%);fill-opacity:1;" d="M 15 15 L 12 15 L 12 9.75 C 12 8.3125 11.363281 7.507812 10.226562 7.507812 C 8.984375 7.507812 8.25 8.34375 8.25 9.75 L 8.25 15 L 5.25 15 L 5.25 5.25 L 8.25 5.25 L 8.25 6.347656 C 8.25 6.347656 9.191406 4.695312 11.3125 4.695312 C 13.433594 4.695312 15 5.988281 15 8.667969 Z M 1.832031 3.691406 C 0.820312 3.691406 0 2.863281 0 1.84375 C 0 0.828125 0.820312 0 1.832031 0 C 2.84375 0 3.664062 0.828125 3.664062 1.84375 C 3.664062 2.863281 2.84375 3.691406 1.832031 3.691406 Z M 0 15 L 3.75 15 L 3.75 5.25 L 0 5.25 Z M 0 15 "/>
</g>
</svg>
