<?xml version="1.0" encoding="UTF-8"?>
<svg xmlns="http://www.w3.org/2000/svg" xmlns:xlink="http://www.w3.org/1999/xlink" width="15px" height="15px" viewBox="0 0 15 15" version="1.1">
<g id="surface1">
<path style="fill:none;stroke-width:2;stroke-linecap:round;stroke-linejoin:round;stroke:rgb(0%,0%,0%);stroke-opacity:1;stroke-miterlimit:4;" d="M 5 8 L 5 17.01875 M 9 8 L 9 17 M 15 8 L 15 17 M 19 8 L 19 17.01875 M 5 17.01875 C 5.3125 17 5.7 17 6.2 17 L 17.8 17 C 18.3 17 18.6875 17 19 17.01875 M 5 17.01875 C 4.60625 17.04375 4.33125 17.1 4.09375 17.21875 C 3.71875 17.4125 3.4125 17.71875 3.21875 18.09375 C 3 18.51875 3 19.08125 3 20.2 L 3 21 L 21 21 L 21 20.2 C 21 19.08125 21 18.51875 20.78125 18.09375 C 20.5875 17.71875 20.28125 17.4125 19.90625 17.21875 C 19.66875 17.1 19.39375 17.04375 19 17.01875 M 3 5.5 L 3 8 L 21 8 L 21 5.5 L 12 3 Z M 3 5.5 " transform="matrix(0.625,0,0,0.625,0,0)"/>
</g>
</svg>
