<?xml version="1.0" encoding="UTF-8"?>
<svg xmlns="http://www.w3.org/2000/svg" xmlns:xlink="http://www.w3.org/1999/xlink" width="15px" height="px" viewBox="0 0 15 15" version="1.1">
<g id="surface1">
<path style=" stroke:none;fill-rule:evenodd;fill:rgb(0%,0%,0%);fill-opacity:1;" d="M 11.867188 10.589844 C 11.683594 11.101562 10.964844 11.527344 10.394531 11.648438 C 10 11.734375 9.488281 11.796875 7.765625 11.085938 C 5.832031 10.28125 3.140625 7.425781 3.140625 5.523438 C 3.140625 4.558594 3.699219 3.429688 4.675781 3.429688 C 5.144531 3.429688 5.25 3.4375 5.402344 3.808594 C 5.585938 4.246094 6.027344 5.320312 6.078125 5.433594 C 6.292969 5.882812 5.859375 6.148438 5.539062 6.542969 C 5.4375 6.660156 5.324219 6.789062 5.453125 7.011719 C 5.578125 7.226562 6.019531 7.945312 6.667969 8.523438 C 7.507812 9.269531 8.183594 9.507812 8.429688 9.605469 C 8.609375 9.683594 8.824219 9.664062 8.957031 9.523438 C 9.125 9.34375 9.332031 9.042969 9.542969 8.746094 C 9.691406 8.535156 9.882812 8.511719 10.082031 8.585938 C 10.214844 8.632812 11.921875 9.421875 11.992188 9.550781 C 12.046875 9.644531 12.046875 10.078125 11.867188 10.589844 M 7.5 0 L 7.496094 0 C 3.363281 0 0 3.363281 0 7.5 C 0 9.140625 0.527344 10.660156 1.429688 11.894531 L 0.492188 14.683594 L 3.375 13.761719 C 4.5625 14.546875 5.976562 15 7.5 15 C 11.636719 15 15 11.636719 15 7.5 C 15 3.363281 11.636719 0 7.5 0 "/>
</g>
</svg>
