<?xml version="1.0" encoding="UTF-8"?>
<svg xmlns="http://www.w3.org/2000/svg" xmlns:xlink="http://www.w3.org/1999/xlink" width="15px" height="15px" viewBox="0 0 15 15" version="1.1">
<g id="surface1">
<path style=" stroke:none;fill-rule:evenodd;fill:rgb(0%,0%,0%);fill-opacity:1;" d="M 1.25 7.667969 C 2.847656 8.289062 4.535156 8.65625 6.25 8.75 L 6.25 10 L 8.75 10 L 8.75 8.75 C 10.460938 8.644531 12.144531 8.289062 13.75 7.695312 L 13.75 12.5 L 1.25 12.5 Z M 9.375 1.875 L 10 2.5 L 10 3.75 L 13.75 3.75 L 13.75 7.007812 C 11.832031 7.722656 9.808594 8.101562 7.761719 8.125 L 7.3125 8.125 C 5.238281 8.101562 3.1875 7.714844 1.25 6.976562 L 1.25 3.75 L 5 3.75 L 5 2.5 L 5.625 1.875 Z M 8.75 3.125 L 6.25 3.125 L 6.25 3.75 L 8.75 3.75 Z M 8.75 3.125 "/>
</g>
</svg>
